<?xml version="1.0" encoding="utf-8"?>
<!-- Generator: Adobe Illustrator 19.2.1, SVG Export Plug-In . SVG Version: 6.00 Build 0)  -->
<svg version="1.1" id="Layer_1" xmlns="http://www.w3.org/2000/svg" xmlns:xlink="http://www.w3.org/1999/xlink" x="0px" y="0px"
	 viewBox="0 0 1105.9 100.7" style="enable-background:new 0 0 1105.9 100.7;" xml:space="preserve">
<style type="text/css">
	.st0{fill:#FFFFFF;}
</style>
<g id="pUBeKf.tif">
	<g>
		<path class="st0" d="M1105.4,0c0.2,0.7,0.4,1.4,0.4,2.1c0,32.9,0,65.8,0,98.6c-367.9,0-735.8,0-1103.8,0c-0.7,0-1.4-0.3-2.1-0.4
			c3.7,0,7.4,0,11.3,0c0-29.7,0-59,0-88.4c9.6,0,19,0,28.6,0c0,6.6,0,13,0,19.4c3.8,0,7.4,0,11.2,0c0-6.6,0-13,0-19.4
			c9.8,0,19.4,0,29.1,0c0,8.6,0,17,0,25.4c3.8,0,7.4,0,11.3,0c0-8.6,0-17.1,0-25.5c9.9,0,19.6,0,29.5,0c0,2.8,0,5.5,0,8.2
			c3.8,0,7.4,0,11.2,0c0-2.8,0-5.5,0-8.1c10,0,19.7,0,29.6,0c0,14.5,0,28.9,0,43.3c3.8,0,7.4,0,11.3,0c0-14.5,0-28.9,0-43.3
			c9.8,0,19.3,0,29,0c0,11.7,0,23.3,0,34.8c3.9,0,7.5,0,11.3,0c0-11.7,0-23.2,0-34.8c9.9,0,19.6,0,29.6,0c0,5.8,0,11.5,0,17
			c3.8,0,7.4,0,11.2,0c0-5.8,0-11.4,0-17.1c9.9,0,19.6,0,29.5,0c0,8.6,0,17,0,25.5c3.9,0,7.5,0,11.3,0c0-8.6,0-17,0-25.4
			c9.7,0,19.3,0,29.1,0c0,10.2,0,20.2,0,30.2c3.8,0,7.4,0,11.2,0c0-10.1,0-20.2,0-30.1c10,0,19.7,0,29.6,0c0,6.6,0,12.9,0,19.3
			c3.8,0,7.4,0,11.2,0c0-6.5,0-12.9,0-19.4c9.9,0,19.6,0,29.6,0c0,12.7,0,25.2,0,37.7c3.8,0,7.4,0,11.2,0c0-12.6,0-25.2,0-37.7
			c9.8,0,19.4,0,29.1,0c0,10.1,0,20.1,0,30.1c3.8,0,7.4,0,11.3,0c0-10.2,0-20.2,0-30.2c9.9,0,19.6,0,29.5,0c0,8.6,0,17,0,25.5
			c3.9,0,7.5,0,11.3,0c0-8.6,0-17,0-25.4c9.9,0,19.6,0,29.6,0c0,16.7,0,33.3,0,49.8c3.8,0,7.4,0,11.2,0c0-16.7,0-33.3,0-49.9
			c9.6,0,18.9,0,28.5,0c0,10.1,0,20.2,0,30.2c3.9,0,7.5,0,11.3,0c0-10.1,0-20.1,0-30.1c9.9,0,19.6,0,29.6,0c0,14.5,0,28.9,0,43.3
			c3.8,0,7.4,0,11.2,0c0-14.5,0-28.9,0-43.3c10,0,19.7,0,29.6,0c0,11.7,0,23.2,0,34.8c3.8,0,7.4,0,11.3,0c0-11.7,0-23.3,0-34.8
			c9.8,0,19.3,0,29,0c0,3.1,0,6.1,0,9.1c3.8,0,7.4,0,11.2,0c0-3.1,0-6.1,0-9.1c10,0,19.7,0,29.6,0c0,5.6,0,11,0,16.5
			c3.8,0,7.4,0,11.3,0c0-5.6,0-11.1,0-16.6c9.9,0,19.6,0,29.5,0c0,6.9,0,13.6,0,20.3c3.9,0,7.5,0,11.3,0c0-6.9,0-13.6,0-20.3
			c9.7,0,19.3,0,29,0c0,10.1,0,20.1,0,30.2c3.8,0,7.4,0,11.3,0c0-10.2,0-20.2,0-30.2c9.9,0,19.6,0,29.5,0c0,3.4,0,6.7,0,10
			c3.9,0,7.5,0,11.3,0c0-3.4,0-6.7,0-10c9.9,0,19.6,0,29.6,0c0,12.7,0,25.2,0,37.7c3.8,0,7.4,0,11.2,0c0-12.7,0-25.2,0-37.6
			c9.8,0,19.4,0,29.1,0c0,10.2,0,20.1,0,30.1c3.8,0,7.4,0,11.2,0c0-10.1,0-20.1,0-30.1c9.9,0,19.6,0,29.6,0c0,11.7,0,23.3,0,34.9
			c3.8,0,7.4,0,11.2,0c0-11.7,0-23.3,0-34.8c10,0,19.7,0,29.6,0c0,6.9,0,13.6,0,20.3c3.8,0,7.4,0,11.3,0c0-6.9,0-13.6,0-20.3
			c9.8,0,19.3,0,29,0c0,8.6,0,17.1,0,25.4c3.9,0,7.5,0,11.3,0c0-8.6,0-17,0-25.4c9.6,0,19,0,28.5,0c0,29.5,0,58.8,0,88.3
			c3.8,0,7.4,0,11.2,0C1105.4,66.7,1105.4,33.3,1105.4,0z"/>
		<path d="M1105.4,0c0,33.3,0,66.7,0,100.1c-3.8,0-7.4,0-11.2,0c0-29.4,0-58.8,0-88.3c-9.6,0-19,0-28.5,0c0,8.4,0,16.8,0,25.4
			c-3.8,0-7.4,0-11.3,0c0-8.4,0-16.9,0-25.4c-9.8,0-19.3,0-29,0c0,6.7,0,13.4,0,20.3c-3.9,0-7.5,0-11.3,0c0-6.7,0-13.4,0-20.3
			c-9.9,0-19.6,0-29.6,0c0,11.6,0,23.1,0,34.8c-3.8,0-7.4,0-11.2,0c0-11.6,0-23.2,0-34.9c-10,0-19.7,0-29.6,0c0,10,0,20,0,30.1
			c-3.8,0-7.4,0-11.2,0c0-10,0-19.9,0-30.1c-9.7,0-19.3,0-29.1,0c0,12.5,0,25,0,37.6c-3.8,0-7.4,0-11.2,0c0-12.5,0-25,0-37.7
			c-10,0-19.7,0-29.6,0c0,3.3,0,6.5,0,10c-3.8,0-7.4,0-11.3,0c0-3.3,0-6.6,0-10c-9.9,0-19.6,0-29.5,0c0,10,0,20,0,30.2
			c-3.9,0-7.5,0-11.3,0c0-10.1,0-20,0-30.2c-9.7,0-19.3,0-29,0c0,6.7,0,13.4,0,20.3c-3.8,0-7.4,0-11.3,0c0-6.7,0-13.4,0-20.3
			c-9.9,0-19.6,0-29.5,0c0,5.4,0,10.9,0,16.6c-3.9,0-7.5,0-11.3,0c0-5.5,0-10.9,0-16.5c-9.9,0-19.6,0-29.6,0c0,3,0,6,0,9.1
			c-3.8,0-7.4,0-11.2,0c0-3,0-6,0-9.1c-9.8,0-19.2,0-29,0c0,11.5,0,23.1,0,34.8c-3.9,0-7.5,0-11.3,0c0-11.6,0-23.1,0-34.8
			c-9.9,0-19.6,0-29.6,0c0,14.3,0,28.7,0,43.3c-3.8,0-7.4,0-11.2,0c0-14.4,0-28.8,0-43.3c-10,0-19.7,0-29.6,0c0,10,0,20,0,30.1
			c-3.8,0-7.4,0-11.3,0c0-10,0-20,0-30.2c-9.6,0-18.9,0-28.5,0c0,16.6,0,33.2,0,49.9c-3.8,0-7.4,0-11.2,0c0-16.5,0-33.1,0-49.8
			c-10,0-19.7,0-29.6,0c0,8.4,0,16.8,0,25.4c-3.8,0-7.4,0-11.3,0c0-8.4,0-16.9,0-25.5c-9.9,0-19.6,0-29.5,0c0,10,0,20,0,30.2
			c-3.9,0-7.5,0-11.3,0c0-10,0-20,0-30.1c-9.7,0-19.3,0-29.1,0c0,12.5,0,25,0,37.7c-3.8,0-7.4,0-11.2,0c0-12.5,0-25,0-37.7
			c-10,0-19.7,0-29.6,0c0,6.5,0,12.8,0,19.4c-3.8,0-7.4,0-11.2,0c0-6.4,0-12.8,0-19.3c-9.9,0-19.6,0-29.6,0c0,10,0,20,0,30.1
			c-3.8,0-7.4,0-11.2,0c0-10,0-20,0-30.2c-9.8,0-19.4,0-29.1,0c0,8.5,0,16.9,0,25.4c-3.8,0-7.4,0-11.3,0c0-8.4,0-16.9,0-25.5
			c-9.9,0-19.6,0-29.5,0c0,5.6,0,11.3,0,17.1c-3.8,0-7.4,0-11.2,0c0-5.6,0-11.2,0-17c-10,0-19.7,0-29.6,0c0,11.6,0,23.1,0,34.8
			c-3.8,0-7.4,0-11.3,0c0-11.5,0-23.1,0-34.8c-9.8,0-19.2,0-29,0c0,14.4,0,28.8,0,43.3c-3.9,0-7.5,0-11.3,0c0-14.4,0-28.7,0-43.3
			c-9.9,0-19.6,0-29.6,0c0,2.7,0,5.4,0,8.1c-3.8,0-7.4,0-11.2,0c0-2.7,0-5.4,0-8.2c-9.9,0-19.6,0-29.5,0c0,8.4,0,16.9,0,25.5
			c-3.9,0-7.5,0-11.3,0c0-8.4,0-16.8,0-25.4c-9.7,0-19.3,0-29.1,0c0,6.4,0,12.8,0,19.4c-3.8,0-7.4,0-11.2,0c0-6.4,0-12.8,0-19.4
			c-9.7,0-19,0-28.6,0c0,29.4,0,58.7,0,88.4c-3.9,0-7.6,0-11.3,0C0,66.9,0,33.4,0,0C368.5,0,736.9,0,1105.4,0z"/>
	</g>
</g>
</svg>
