<?xml version="1.0" encoding="utf-8"?>
<!-- Generator: Adobe Illustrator 19.2.1, SVG Export Plug-In . SVG Version: 6.00 Build 0)  -->
<svg version="1.1" id="Layer_1" xmlns="http://www.w3.org/2000/svg" xmlns:xlink="http://www.w3.org/1999/xlink" x="0px" y="0px"
	 viewBox="0 0 595.2 632.9" style="enable-background:new 0 0 595.2 632.9;" xml:space="preserve">
<style type="text/css">
	.st0{clip-path:url(#SVGID_2_);}
</style>
<g>
	<defs>
		<rect id="SVGID_1_" width="596.2" height="811.5"/>
	</defs>
	<clipPath id="SVGID_2_">
		<use xlink:href="#SVGID_1_"  style="overflow:visible;"/>
	</clipPath>
	<path class="st0" d="M525.4,361.1c23.4,0,46.5,0,69.3,0c0.3,0.2,0.4,0.3,0.5,0.4c0.1,0.1,0.2,0.2,0.2,0.3c0.1,0.6,0.2,1.3,0.2,1.9
		c0,89.1,0,178.2,0,267.2c0,0.4-0.1,0.8-0.2,1.1c-0.1,0.2-0.2,0.4-0.5,0.8c-118.4,0-236.8,0-355.5,0c0-23,0-45.8,0-69.1
		c1.5-0.1,3-0.2,4.5-0.2c22.7,0,45.3,0,68,0c26.3,0,52.5,0,78.8,0c14.2,0,28.3-0.8,42.2-3.7c29.4-6.1,51-22.2,64.6-49.1
		c7.6-15.1,12.4-31.1,16-47.5c3.8-17.3,6.3-34.7,7.9-52.3c1.4-15.8,2.6-31.6,3.8-47.4C525.2,363,525.3,362.2,525.4,361.1z"/>
	<path class="st0" d="M144,307.4c0-61.3,0-122.1,0-183.2c1.7,0,3.1,0,4.5,0c27.7,0,55.3-0.1,83,0.1c20,0.2,39.8,2.3,58.9,8.6
		c10.2,3.4,19.7,8.1,28,15.2c10.4,8.9,17.3,20.1,20.9,33.2c5.8,21.3,6.3,42.7,1.2,64.2c-5.3,21.9-18.5,37.6-38.6,47.5
		c-12.4,6.1-25.5,9.4-39.1,11.5c-14.7,2.2-29.4,2.9-44.2,2.9c-23.2,0-46.3,0-69.5,0C147.6,307.4,146,307.4,144,307.4z"/>
	<path class="st0" d="M0,0c116.3,0,232.3,0,348.4,0c0,20.2,0,40.2,0,60.5c-116.2,0-232.2,0-348.4,0C0,40.3,0,20.3,0,0z"/>
	<path class="st0" d="M143.8,370.7c32,0,63.2,0,94.3,0c0.2,0.2,0.3,0.3,0.4,0.4c0.1,0.1,0.2,0.2,0.2,0.3c0.1,0.4,0.2,0.8,0.2,1.1
		c0,62.9,0,125.7,0,188.6c0,0.5-0.1,1-0.2,1.8c-1,0.1-1.9,0.4-2.9,0.4c-17.1,0-34.2,0.1-51.3,0c-7.3-0.1-14.6-0.9-21.6-3.5
		c-4.4-1.6-8.4-3.9-11.8-7.1c-5.2-5.1-7-11.5-7.2-18.6c0-1,0-2.1,0-3.1c0-51.7,0-103.3,0-155C143.8,374.4,143.8,372.8,143.8,370.7z"
		/>
</g>
</svg>
